<?xml version="1.0" encoding="utf-8"?>
<!-- Generator: Adobe Illustrator 21.1.0, SVG Export Plug-In . SVG Version: 6.00 Build 0)  -->
<svg version="1.1" id="Capa_1" xmlns="http://www.w3.org/2000/svg" xmlns:xlink="http://www.w3.org/1999/xlink" x="0px" y="0px"
	 viewBox="0 0 512 512" style="enable-background:new 0 0 512 512;" xml:space="preserve">
<style type="text/css">
	.st0{fill:#939396;}
</style>
<path class="st0" d="M252.6,444.1l-20.1-29.5c-3.6-5.3-2.3-12.6,3.2-16.3c5.3-3.6,12.4-2.2,16.1,3.2l32.4,47.6
	c3.3,4.3,3.2,10.5-0.5,14.8L245.5,508c-4.2,4.8-11.4,5.3-16.4,1.2c-4.8-4.3-5.3-11.6-1.2-16.6l21.9-25.2c-7.3-0.2-14.4-0.8-21.7-1.8
	c-11.4-1.5-22.9-4-34.4-7.6c-55.6-17.3-99.1-55.4-124.1-103.2c-25.2-47.8-32-105.2-14.8-160.8c10.8-34.7,29.7-64.7,53.9-88.5
	c25.2-24.6,56.3-42.5,90-51.9c6.1-1.8,12.6,1.8,14.4,8c1.8,6.3-1.8,12.8-8.1,14.4c-29.9,8.6-57.6,24.6-79.8,46.3
	c-21.7,21.1-38.5,47.6-48,78.5c-15.4,49.5-9.3,100.6,12.9,143.1c22.4,42.5,60.9,76.5,110.4,91.9c10.3,3.2,20.6,5.3,30.7,6.8
	C238.3,443.5,245.5,444,252.6,444.1L252.6,444.1z M313.3,458.6c-6.1,1.8-12.6-1.8-14.4-8.1c-1.7-6.1,1.8-12.6,8.1-14.4
	c30-8.5,57.6-24.4,80-46.3c21.6-21.1,38.3-47.6,48-78.3c15.3-49.6,9.1-100.6-13.1-143.2c-22.4-42.5-60.9-76.5-110.4-91.8
	c-10.3-3.2-20.4-5.5-30.7-6.8c-7.1-1-14.3-1.5-21.2-1.7l19.9,29.5c3.6,5.3,2.3,12.6-3,16.1c-5.3,3.6-12.6,2.3-16.3-3l-32.4-47.8
	c-3.3-4.3-3.2-10.5,0.5-14.6L266.5,4c4.2-4.8,11.6-5.3,16.4-1.2s5.5,11.6,1.2,16.4l-21.9,25.2c7.3,0.3,14.4,0.8,21.7,1.8
	c11.4,1.7,22.9,4.2,34.4,7.6c55.8,17.4,99.1,55.6,124.1,103.4c25.2,47.8,32,105.2,14.8,160.8c-10.8,34.7-29.7,64.6-53.9,88.3
	C378.1,431,347,448.9,313.3,458.6L313.3,458.6z"/>
</svg>
