<?xml version="1.0" encoding="utf-8"?>
<!-- Generator: Adobe Illustrator 21.1.0, SVG Export Plug-In . SVG Version: 6.00 Build 0)  -->
<svg version="1.1" id="Capa_1" xmlns="http://www.w3.org/2000/svg" xmlns:xlink="http://www.w3.org/1999/xlink" x="0px" y="0px"
	 viewBox="0 0 512 512" style="enable-background:new 0 0 512 512;" xml:space="preserve">
<style type="text/css">
	.st0{fill:#939396;}
</style>
<g>
	<path class="st0" d="M499.5,272.1L257.9,30.8c-8.6-8.6-20.1-15.8-34.5-21.8c-14.4-6-27.6-9-39.5-9H43.3C31.5,0,21.4,4.3,12.8,12.8
		C4.3,21.4,0,31.5,0,43.3v140.6c0,11.9,3,25.1,9,39.5c6,14.4,13.2,25.8,21.8,34.1l241.6,242c8.3,8.3,18.5,12.5,30.4,12.5
		c11.7,0,22-4.2,30.8-12.5l165.9-166.3c8.3-8.3,12.5-18.5,12.5-30.4C512,291.1,507.8,280.8,499.5,272.1z M138.7,138.7
		c-8.5,8.4-18.6,12.7-30.6,12.7c-11.9,0-22.1-4.2-30.6-12.7c-8.4-8.5-12.7-18.6-12.7-30.6c0-11.9,4.2-22.1,12.7-30.6
		c8.5-8.5,18.6-12.7,30.6-12.7c11.9,0,22.1,4.2,30.6,12.7c8.4,8.4,12.7,18.6,12.7,30.6C151.4,120.1,147.2,130.3,138.7,138.7z"/>
</g>
</svg>
